<?xml version="1.0" encoding="UTF-8"?>
<!DOCTYPE svg PUBLIC "-//W3C//DTD SVG 1.1//EN" "http://www.w3.org/Graphics/SVG/1.1/DTD/svg11.dtd">
<svg xmlns="http://www.w3.org/2000/svg" version="1.1" width="521px" height="464px" style="shape-rendering:geometricPrecision; text-rendering:geometricPrecision; image-rendering:optimizeQuality; fill-rule:evenodd; clip-rule:evenodd" xmlns:xlink="http://www.w3.org/1999/xlink">
<g><path style="opacity:1" fill="#fefefe" d="M -0.5,-0.5 C 173.167,-0.5 346.833,-0.5 520.5,-0.5C 520.5,154.167 520.5,308.833 520.5,463.5C 346.833,463.5 173.167,463.5 -0.5,463.5C -0.5,308.833 -0.5,154.167 -0.5,-0.5 Z"/></g>
<g><path style="opacity:1" fill="#315eb7" d="M 224.5,73.5 C 223.167,73.5 221.833,73.5 220.5,73.5C 220.737,72.209 220.404,71.209 219.5,70.5C 218.549,64.7945 217.382,59.1278 216,53.5C 209.295,49.689 205.795,51.689 205.5,59.5C 205.912,65.1443 206.912,70.6443 208.5,76C 207.095,77.2692 205.429,77.7692 203.5,77.5C 202.605,68.0233 200.938,58.69 198.5,49.5C 200.167,49.5 201.833,49.5 203.5,49.5C 203.351,50.552 203.517,51.552 204,52.5C 204.785,50.714 205.951,49.214 207.5,48C 211.701,47.0776 215.701,47.5776 219.5,49.5C 225.465,41.6595 231.298,41.6595 237,49.5C 238.879,56.3928 240.046,63.3928 240.5,70.5C 239.167,70.5 237.833,70.5 236.5,70.5C 235.911,63.049 234.244,55.8823 231.5,49C 227.857,47.3147 224.691,48.148 222,51.5C 221.333,54.5 221.333,57.5 222,60.5C 223.153,64.7872 223.987,69.1205 224.5,73.5 Z"/></g>
<g><path style="opacity:1" fill="#2d5cb6" d="M 264.5,43.5 C 267.068,43.5943 268.568,44.9276 269,47.5C 272.958,45.0816 277.125,44.9149 281.5,47C 282.46,48.4194 283.293,49.9194 284,51.5C 291.642,45.1897 297.142,46.6897 300.5,56C 299.01,63.1075 298.01,70.2742 297.5,77.5C 296.167,77.5 294.833,77.5 293.5,77.5C 294.772,69.539 295.272,61.539 295,53.5C 290.276,50.4317 286.609,51.4317 284,56.5C 282.756,62.1109 281.756,67.7776 281,73.5C 279.644,74.3802 278.144,74.7135 276.5,74.5C 277.281,67.8107 278.281,61.144 279.5,54.5C 277.081,47.277 273.247,46.6103 268,52.5C 266.044,58.6896 264.878,65.0229 264.5,71.5C 263.167,71.5 261.833,71.5 260.5,71.5C 261.616,62.1355 262.95,52.8021 264.5,43.5 Z"/></g>
<g><path style="opacity:1" fill="#315db5" d="M 163.5,63.5 C 172.899,62.3823 179.065,66.3823 182,75.5C 182.169,88.3355 176.003,93.5021 163.5,91C 155.186,85.239 153.019,77.739 157,68.5C 158.965,66.4497 161.132,64.783 163.5,63.5 Z"/></g>
<g><path style="opacity:1" fill="#2e5db6" d="M 327.5,64.5 C 341.146,63.4702 345.979,69.4702 342,82.5C 341.261,83.5742 340.261,84.2409 339,84.5C 333.927,81.7133 328.761,79.0466 323.5,76.5C 321.436,83.2038 323.769,87.7038 330.5,90C 336.75,90.1077 337.083,91.2743 331.5,93.5C 318.718,89.9409 315.218,82.2743 321,70.5C 323.063,68.2659 325.229,66.2659 327.5,64.5 Z"/></g>
<g><path style="opacity:1" fill="#f9f9fb" d="M 163.5,67.5 C 174.246,67.4203 178.746,72.7537 177,83.5C 171.407,89.0553 166.073,88.7219 161,82.5C 158.336,76.7689 159.169,71.7689 163.5,67.5 Z"/></g>
<g><path style="opacity:1" fill="#f7f9fc" d="M 328.5,68.5 C 336.825,66.9934 340.325,70.3267 339,78.5C 338.586,78.9574 338.086,79.2907 337.5,79.5C 333.136,77.6563 329.136,75.323 325.5,72.5C 326.524,71.1482 327.524,69.8149 328.5,68.5 Z"/></g>
<g><path style="opacity:1" fill="#adbfe3" d="M 219.5,70.5 C 220.404,71.209 220.737,72.209 220.5,73.5C 221.833,73.5 223.167,73.5 224.5,73.5C 223.081,74.4511 221.415,74.7845 219.5,74.5C 219.5,73.1667 219.5,71.8333 219.5,70.5 Z"/></g>
<g><path style="opacity:1" fill="#2c5cb6" d="M 128.5,87.5 C 130.346,87.2222 131.68,87.8888 132.5,89.5C 121.84,96.863 121.84,104.03 132.5,111C 139.254,112.456 143.92,109.956 146.5,103.5C 148.921,105.176 149.088,107.176 147,109.5C 142.47,115.171 136.637,117.004 129.5,115C 122.024,110.585 119.191,104.085 121,95.5C 123.028,92.3078 125.528,89.6411 128.5,87.5 Z"/></g>
<g><path style="opacity:1" fill="#335fb6" d="M 367.5,87.5 C 370.262,87.8859 371.262,89.2192 370.5,91.5C 372.5,92.3333 374.5,93.1667 376.5,94C 379.079,95.6117 379.079,97.1117 376.5,98.5C 373.451,96.534 370.118,96.034 366.5,97C 362.373,100.962 358.373,105.129 354.5,109.5C 351.41,110.914 350.243,109.914 351,106.5C 356.709,100.295 362.209,93.9615 367.5,87.5 Z"/></g>
<g><path style="opacity:1" fill="#2f5db7" d="M 385.5,118.5 C 394.692,117.262 401.025,120.928 404.5,129.5C 404.132,130.91 403.299,131.91 402,132.5C 396.642,121.252 389.642,119.918 381,128.5C 378.419,135.181 380.252,140.348 386.5,144C 382.881,146.241 380.048,145.408 378,141.5C 373.08,131.354 375.58,123.687 385.5,118.5 Z"/></g>
<g><path style="opacity:1" fill="#325eb6" d="M 107.5,127.5 C 109.103,127.312 110.437,127.812 111.5,129C 109.291,132.586 106.957,136.086 104.5,139.5C 103.328,139.081 102.328,138.415 101.5,137.5C 103.952,134.394 105.952,131.061 107.5,127.5 Z"/></g>
<g><path style="opacity:1" fill="#325eb6" d="M 70.5,151.5 C 72.3464,151.222 73.6798,151.889 74.5,153.5C 72.2616,158.585 71.2616,163.752 71.5,169C 75.0644,170.927 78.731,171.427 82.5,170.5C 83.5153,166.284 85.0153,162.284 87,158.5C 88.2989,159.09 89.1322,160.09 89.5,161.5C 87.9116,165.408 87.0783,169.408 87,173.5C 90.4442,174.927 93.9442,176.26 97.5,177.5C 99.0969,173.21 100.597,168.876 102,164.5C 103.11,162.963 104.61,162.297 106.5,162.5C 105.063,169.655 102.563,176.321 99,182.5C 87.9712,178.828 76.9712,175.162 66,171.5C 65.3333,169.833 65.3333,168.167 66,166.5C 67.8102,161.571 69.3102,156.571 70.5,151.5 Z"/></g>
<g><path style="opacity:1" fill="#325fb7" d="M 404.5,156.5 C 412.839,154.877 418.673,157.877 422,165.5C 422.126,173.888 417.959,178.888 409.5,180.5C 408.238,173.993 405.905,167.993 402.5,162.5C 399.433,164.469 398.1,167.302 398.5,171C 398.447,174.894 399.781,178.227 402.5,181C 401.407,182.365 400.074,182.699 398.5,182C 390.548,171.041 392.548,162.541 404.5,156.5 Z"/></g>
<g><path style="opacity:1" fill="#f3f5fb" d="M 407.5,160.5 C 417.056,160.2 420.056,164.367 416.5,173C 414.854,174.401 413.187,174.568 411.5,173.5C 409.752,169.258 408.418,164.924 407.5,160.5 Z"/></g>
<g><path style="opacity:1" fill="#fe5a61" d="M 293.5,166.5 C 319.169,166.333 344.835,166.5 370.5,167C 364.456,177.869 355.456,185.202 343.5,189C 327.544,193.831 311.211,195.998 294.5,195.5C 280.458,195.265 266.458,194.431 252.5,193C 236.167,192.333 219.833,192.333 203.5,193C 185.073,196.777 168.906,204.944 155,217.5C 153.073,220.948 151.739,224.615 151,228.5C 150.316,237.268 148.983,245.935 147,254.5C 143,263.833 136.333,270.5 127,274.5C 130.473,257.388 132.806,240.054 134,222.5C 140.867,213.822 149.034,206.655 158.5,201C 184.864,186.767 212.864,177.1 242.5,172C 259.582,169.575 276.582,167.742 293.5,166.5 Z"/></g>
<g><path style="opacity:1" fill="#fe5b61" d="M 346.5,196.5 C 347.239,196.369 347.906,196.536 348.5,197C 335.103,212.035 318.437,221.368 298.5,225C 288.565,226.634 278.565,227.467 268.5,227.5C 245.673,226.09 222.839,224.757 200,223.5C 185.441,223.341 171.608,226.341 158.5,232.5C 158.167,232.167 157.833,231.833 157.5,231.5C 166.151,215.664 179.484,206.497 197.5,204C 205.972,203.049 214.472,202.549 223,202.5C 253.45,205.061 283.95,205.895 314.5,205C 325.843,204.239 336.51,201.406 346.5,196.5 Z"/></g>
<g><path style="opacity:1" fill="#2357b4" d="M 74.5,212.5 C 87.9989,211.171 94.4989,217.171 94,230.5C 90.3942,238.553 84.2275,241.72 75.5,240C 65.7456,235.33 63.2456,228.164 68,218.5C 70.0627,216.266 72.2294,214.266 74.5,212.5 Z"/></g>
<g><path style="opacity:1" fill="#2357b4" d="M 412.5,212.5 C 425.53,211.043 432.03,216.71 432,229.5C 428.645,238.597 422.145,242.097 412.5,240C 400.541,230.835 400.541,221.668 412.5,212.5 Z"/></g>
<g><path style="opacity:1" fill="#ff5a61" d="M 331.5,222.5 C 332.239,222.369 332.906,222.536 333.5,223C 310.611,254.411 279.944,265.744 241.5,257C 224.549,253.743 207.549,250.743 190.5,248C 178.564,246.741 166.897,247.908 155.5,251.5C 155.167,251.167 154.833,250.833 154.5,250.5C 159.844,242.005 167.511,236.838 177.5,235C 186.5,234.333 195.5,234.333 204.5,235C 219.19,236.188 233.857,237.521 248.5,239C 275.586,240.93 301.586,236.597 326.5,226C 328.233,224.811 329.9,223.644 331.5,222.5 Z"/></g>
<g><path style="opacity:1" fill="#ff5b61" d="M 162.5,256.5 C 181.779,257.488 200.446,261.321 218.5,268C 242.825,274.579 266.825,273.913 290.5,266C 271.477,284.45 248.81,291.45 222.5,287C 203.229,280.465 183.896,274.132 164.5,268C 156.533,266.768 149.366,268.601 143,273.5C 143.964,269.435 146.13,265.935 149.5,263C 153.657,260.255 157.99,258.088 162.5,256.5 Z"/></g>
<g><path style="opacity:1" fill="#315eb7" d="M 106.5,267.5 C 108.124,267.36 109.29,268.027 110,269.5C 112.143,275.428 113.977,281.428 115.5,287.5C 114.167,287.5 112.833,287.5 111.5,287.5C 110.576,283.059 109.242,278.725 107.5,274.5C 102.825,273.331 98.4914,274.164 94.5,277C 96.5408,281.289 97.8742,285.789 98.5,290.5C 97.1779,290.67 96.0113,290.337 95,289.5C 93.9319,286.129 92.7653,282.796 91.5,279.5C 87.731,278.573 84.0644,279.073 80.5,281C 79.9415,281.725 79.6082,282.558 79.5,283.5C 80.7325,287.697 82.0658,291.864 83.5,296C 82.9681,298.02 81.6348,298.853 79.5,298.5C 78.3103,291.93 76.3103,285.597 73.5,279.5C 84.4231,275.083 95.4231,271.083 106.5,267.5 Z"/></g>
<g><path style="opacity:1" fill="#2c5bb4" d="M 400.5,271.5 C 405.08,271.113 409.414,271.947 413.5,274C 411.073,279.777 408.74,285.61 406.5,291.5C 411.776,293.281 415.609,291.614 418,286.5C 418.822,283.883 419.322,281.216 419.5,278.5C 420.833,278.5 422.167,278.5 423.5,278.5C 422.067,295.217 413.734,300.05 398.5,293C 391.422,285.06 392.088,277.894 400.5,271.5 Z"/></g>
<g><path style="opacity:1" fill="#f2f4f8" d="M 401.5,275.5 C 404.157,275.162 406.49,275.829 408.5,277.5C 406.764,281.874 404.931,286.207 403,290.5C 396.362,286.025 395.862,281.025 401.5,275.5 Z"/></g>
<g><path style="opacity:1" fill="#325fb7" d="M 105.5,312.5 C 108.303,315.417 110.637,318.75 112.5,322.5C 111.855,323.646 111.022,324.646 110,325.5C 107.634,321.964 105.467,318.297 103.5,314.5C 104.243,313.818 104.909,313.151 105.5,312.5 Z"/></g>
<g><path style="opacity:1" fill="#2c5bb4" d="M 381.5,307.5 C 383.346,307.222 384.68,307.889 385.5,309.5C 377.558,315.992 377.558,322.492 385.5,329C 393.724,331.555 399.391,328.722 402.5,320.5C 404.941,322.528 405.108,324.862 403,327.5C 396.561,335.394 389.061,336.561 380.5,331C 373.581,322.851 373.915,315.018 381.5,307.5 Z"/></g>
<g><path style="opacity:1" fill="#3762b9" d="M 359.5,335.5 C 362.968,337.044 363.135,338.71 360,340.5C 359.333,343.167 359.333,345.833 360,348.5C 363.266,353.603 367.1,358.27 371.5,362.5C 370.833,363.833 369.833,364.833 368.5,365.5C 361.957,359.125 355.957,352.292 350.5,345C 351.333,342.5 352.833,342 355,343.5C 355.738,340.352 357.238,337.685 359.5,335.5 Z"/></g>
<g><path style="opacity:1" fill="#2a5ab5" d="M 130.5,337.5 C 138.69,336.262 144.69,339.262 148.5,346.5C 147.855,347.646 147.022,348.646 146,349.5C 141.191,340.672 134.857,339.339 127,345.5C 122.709,353.274 124.542,359.274 132.5,363.5C 132.113,364.72 131.28,365.387 130,365.5C 120.932,361.019 118.265,354.019 122,344.5C 124.464,341.519 127.297,339.186 130.5,337.5 Z"/></g>
<g><path style="opacity:1" fill="#2f5db6" d="M 326.5,360.5 C 333.958,359.793 338.958,362.959 341.5,370C 337.026,373.743 332.026,376.743 326.5,379C 325.588,381.488 326.588,383.155 329.5,384C 335.109,384.7 339.776,382.866 343.5,378.5C 344.415,379.328 345.081,380.328 345.5,381.5C 337.533,390.192 329.366,390.525 321,382.5C 315.063,373.075 316.896,365.741 326.5,360.5 Z"/></g>
<g><path style="opacity:1" fill="#305eb7" d="M 164.5,361.5 C 180.665,361.511 185.498,368.845 179,383.5C 174.041,389.615 167.874,391.115 160.5,388C 153.106,380.999 152.606,373.499 159,365.5C 161.015,364.303 162.849,362.97 164.5,361.5 Z"/></g>
<g><path style="opacity:1" fill="#f4f6fb" d="M 326.5,364.5 C 331.173,363.509 334.506,365.176 336.5,369.5C 332.326,372.088 327.993,374.421 323.5,376.5C 321.596,371.599 322.596,367.599 326.5,364.5 Z"/></g>
<g><path style="opacity:1" fill="#fbfbfd" d="M 165.5,365.5 C 177.499,365.36 180.665,370.693 175,381.5C 169.878,386.767 164.878,386.767 160,381.5C 159.333,378.5 159.333,375.5 160,372.5C 161.666,370.004 163.5,367.671 165.5,365.5 Z"/></g>
<g><path style="opacity:1" fill="#325fb7" d="M 203.5,375.5 C 204.833,375.5 206.167,375.5 207.5,375.5C 206.812,380.242 207.812,381.075 210.5,378C 216.401,376.458 220.734,378.292 223.5,383.5C 229.457,378.995 234.624,379.661 239,385.5C 239.229,394.182 237.729,402.516 234.5,410.5C 233.098,410.135 232.098,409.301 231.5,408C 232.95,402.582 233.95,397.082 234.5,391.5C 234.991,385.493 232.324,383.326 226.5,385C 224.383,386.731 222.883,388.898 222,391.5C 220.842,396.457 220.008,401.457 219.5,406.5C 218.167,406.5 216.833,406.5 215.5,406.5C 215.979,399.767 216.979,393.1 218.5,386.5C 218.61,384.626 217.944,383.126 216.5,382C 211.004,380.11 207.504,381.943 206,387.5C 204.97,392.814 204.137,398.147 203.5,403.5C 201.833,403.5 200.167,403.5 198.5,403.5C 200.173,394.153 201.84,384.82 203.5,375.5 Z"/></g>
<g><path style="opacity:1" fill="#2b5bb4" d="M 285.5,376.5 C 289.839,375.846 293.673,376.846 297,379.5C 299.036,387.383 300.536,395.383 301.5,403.5C 300.167,403.5 298.833,403.5 297.5,403.5C 296.659,396.785 295.492,390.118 294,383.5C 287.866,378.672 284.032,380.172 282.5,388C 283.448,394.188 284.448,400.355 285.5,406.5C 283.833,406.5 282.167,406.5 280.5,406.5C 279.669,400.176 278.835,393.843 278,387.5C 274.829,382.586 271.163,382.253 267,386.5C 266.395,393.907 266.895,401.241 268.5,408.5C 267.178,408.33 266.011,408.663 265,409.5C 263.174,400.213 261.674,390.88 260.5,381.5C 261.833,381.5 263.167,381.5 264.5,381.5C 264.351,382.552 264.517,383.552 265,384.5C 267.897,379.845 272.063,378.345 277.5,380C 278.931,380.465 280.097,381.299 281,382.5C 282.332,380.34 283.832,378.34 285.5,376.5 Z"/></g>
</svg>
